<svg viewBox="0 0 64 64" xmlns="http://www.w3.org/2000/svg">
  <path d="M32 4C24.5 4 20 8 17.5 12C15 16 14 20 12.5 26C11 32 9 40 12 48C15 56 19 58 22 56C25 54 26 48 28 44C30 40 31 38 32 38C33 38 34 40 36 44C38 48 39 54 42 56C45 58 49 56 52 48C55 40 53 32 51.5 26C50 20 49 16 46.5 12C44 8 39.5 4 32 4Z" fill="#0d5c3f" stroke="#0d5c3f" stroke-width="2" stroke-linejoin="round"/>
  <path d="M22 18C25 16 29 15 32 15C35 15 39 16 42 18" stroke="white" stroke-width="2.5" stroke-linecap="round" opacity="0.5"/>
</svg>
